<?xml version="1.0" encoding="UTF-8" standalone="no"?>
<!DOCTYPE svg PUBLIC "-//W3C//DTD SVG 1.1//EN" "http://www.w3.org/Graphics/SVG/1.1/DTD/svg11.dtd">
<svg width="100%" height="100%" viewBox="0 0 2481 3508" version="1.1" xmlns="http://www.w3.org/2000/svg" xmlns:xlink="http://www.w3.org/1999/xlink" xml:space="preserve" xmlns:serif="http://www.serif.com/" style="fill-rule:evenodd;clip-rule:evenodd;stroke-linecap:round;stroke-linejoin:round;stroke-miterlimit:1.5;">
    <g transform="matrix(1.175548,-0.209808,0.209808,1.175548,-633.568021,-388.506478)">
        <path d="M1293,1032L1447.824,1505.258L1746.178,1359.013L1698.335,1686.026L2199.357,1686.026L1794.022,1978.515L2026.258,2215.144L1698.335,2271.004L1853.159,2744.262L1447.824,2451.773L1293,2744.262L1138.176,2451.773L732.841,2744.262L887.665,2271.004L559.742,2215.144L791.978,1978.515L386.643,1686.026L887.665,1686.026L839.822,1359.013L1138.176,1505.258L1293,1032Z" style="fill:rgb(182,216,255);"/>
    </g>
    <g transform="matrix(1,0,0,1,110.893947,-10.502267)">
        <path d="M766,1532C765.928,1532.191 770.737,1567.237 778.484,1579.58C784.529,1589.213 795.38,1613.334 814,1618C871.755,1632.473 929,1620 929,1620L830,1697L966,1905L1007,1915C1007,1915 1092.593,1937.128 1218,1869C1218.676,1868.915 1226.544,1823.778 1234.5,1767.061C1239.574,1730.888 1249.951,1689.025 1250.859,1647.493C1252.494,1572.717 1260.984,1499.156 1258,1467C1250.632,1387.592 1151.083,1388.09 1120,1342C1120,1342 1045.359,1300.994 981,1317C916.641,1333.006 766,1532 766,1532Z" style="fill:rgb(223,99,99);"/>
    </g>
    <g transform="matrix(1,0,0,1,110.893947,-10.502267)">
        <path d="M1007,2177L796,2142L716,2445C716.064,2456.746 835.05,2537.173 892,2492L1007,2177Z" style="fill:url(#_Linear1);"/>
    </g>
    <g transform="matrix(1,0,0,1,110.893947,-10.502267)">
        <path d="M1135,2133L1324.258,2018C1324.258,2018 1440.36,2149.306 1453,2196C1465.64,2242.694 1473,2288 1473,2288C1470.512,2315.323 1300.43,2361.643 1290.258,2323.825C1283.152,2297.41 1297.066,2293.383 1135,2133Z" style="fill:url(#_Linear2);"/>
    </g>
    <g transform="matrix(1,0,0,1,110.893947,-10.502267)">
        <path d="M753,2136L1028.861,2186L1060,2095L1107,2153L1341,2012L1218,1869C1118.809,1910.035 1034.312,1923.727 971,1898L833,1855" style="fill:rgb(162,84,87);"/>
    </g>
    <g transform="matrix(1,0,0,1,110.893947,-10.502267)">
        <path d="M629,2709L586,2817L679,2934L810,2946L753,2751L629,2709Z" style="fill:rgb(140,169,164);"/>
    </g>
    <g transform="matrix(1,0,0,1,110.893947,-10.502267)">
        <path d="M1351,2633L1354,2768L1420,2818L1611,2827.5C1611,2827.5 1559.317,2790.918 1579,2675L1458,2599L1351,2633Z" style="fill:rgb(140,169,164);"/>
    </g>
    <g transform="matrix(1,0,0,1,110.893947,-10.502267)">
        <path d="M713,2431C732.734,2405.113 767.497,2471.323 802,2480C836.503,2488.677 901.655,2453.767 898,2485C892.5,2532 765.999,2771 765.999,2771C765.999,2771 721.387,2800.272 689,2788C656.613,2775.728 637.896,2745.476 629,2712C629,2712 684.667,2468.167 713,2431Z" style="fill:rgb(223,99,99);"/>
    </g>
    <g transform="matrix(-0.980006,-0.198969,-0.198969,0.980006,2774.320942,43.571169)">
        <path d="M713,2431C727.949,2402.085 770.268,2462.702 804.771,2471.379C839.274,2480.056 899.083,2461.408 895.428,2492.641C889.928,2539.641 775.357,2790.247 775.357,2790.247C775.357,2790.247 730.745,2819.519 698.358,2807.247C665.97,2794.975 657.174,2771.148 648.278,2737.672C648.278,2737.672 690.532,2474.459 713,2431Z" style="fill:rgb(223,99,99);"/>
    </g>
    <g transform="matrix(1,0,0,1,110.893947,-10.502267)">
        <path d="M1110.28,1308.512L1097,1342C1097,1342 1091.071,1416.727 1129,1435C1166.929,1453.273 1173,1390 1173,1390L1188,1338L1110.28,1308.512Z" style="fill:url(#_Linear3);"/>
    </g>
    <g transform="matrix(1.078199,0,0,1.116201,0.624033,-159.444114)">
        <path d="M1422.792,1257.958C1384.424,1308.873 1322.192,1342 1252,1342C1135.546,1342 1041,1250.815 1041,1138.5C1041,1026.185 1135.546,935 1252,935C1368.454,935 1463,1026.185 1463,1138.5C1463,1162.676 1458.619,1185.873 1450.583,1207.392C1427.701,1210.217 1410.459,1223.421 1410.96,1238.707C1411.204,1246.17 1415.638,1252.88 1422.792,1257.958Z" style="fill:url(#_Linear4);"/>
    </g>
    <g transform="matrix(0.953263,0.302141,-0.302141,0.953263,493.705907,-342.680446)">
        <ellipse cx="1269.172" cy="1203.066" rx="51.172" ry="33.934" style="fill:rgb(255,161,161);"/>
    </g>
    <g transform="matrix(-0.999499,0.031647,0.031647,0.999499,2803.528157,-21.047018)">
        <path d="M1276.538,1169.482C1301.296,1171.853 1320.344,1185.996 1320.344,1203.066C1320.344,1211.401 1315.803,1219.038 1308.273,1224.947C1295.244,1208.19 1284.504,1189.55 1276.538,1169.482Z" style="fill:rgb(255,161,161);"/>
    </g>
    <g transform="matrix(1,0,0,1,110.893947,-10.502267)">
        <path d="M775,1572C771.844,1571.92 704.757,1673.383 707,1717C708.579,1747.706 829.851,1878.852 865,1896C898.858,1912.519 926.565,1954.321 956,1961C1001.904,1971.416 1044.838,1906.948 1023,1867C1010.152,1843.497 1035.422,1827.636 1011.941,1820.223C1003.374,1817.518 987.048,1827.883 966,1820C898.427,1794.691 851.828,1723.921 854,1720C870.509,1690.193 935.005,1618.173 930,1619C930,1619 790.828,1609.585 775,1572Z" style="fill:url(#_Linear5);"/>
    </g>
    <g transform="matrix(1,0,0,1,110.893947,-10.502267)">
        <path d="M1252,1614L1231.5,1788C1231.5,1788 1276.569,1808.122 1272,1815C1267.431,1821.878 1237.424,1861.967 1295,1887C1352.576,1912.033 1376.391,1889.723 1391,1854C1405.609,1818.277 1390.443,1799.428 1379,1781C1360.878,1751.814 1252,1614 1252,1614Z" style="fill:url(#_Linear6);"/>
    </g>
    <g transform="matrix(1,0,0,1,110.893947,-10.502267)">
        <path d="M1182.601,884.706C1182.601,884.706 1090.447,792.832 1054,792C1018.496,791.189 921.217,841.2 905,878.526C884.532,925.634 849,1273 849,1273L1098,1299.077L1028.861,1019L1182.601,884.706Z" style="fill:url(#_Linear7);"/>
    </g>
    <g transform="matrix(1,0,0,1,110.893947,-10.502267)">
        <path d="M1093.664,1298C1116.164,1311 1135,1202 1135,1202C1135,1202 1083.06,1180.231 1096.664,1128C1110.267,1075.769 1161,1104 1161,1104C1161,1104 1189.383,999.694 1289,988C1378.135,977.537 1408.768,1003.981 1442,1028C1459.924,1040.955 1433.921,954.265 1327,902C1220.079,849.735 1140.64,898.575 1114,916C1087.36,933.425 1001.248,980.761 1000,1119C999.022,1227.241 1071.164,1285 1093.664,1298Z" style="fill:url(#_Linear8);"/>
    </g>
    <g transform="matrix(1,0,0,1,130.544754,-15.281976)">
        <path d="M1316,1067C1314.681,1054.432 1288.817,1043.619 1263,1053C1237.183,1062.381 1217.065,1076.234 1221,1088.801C1224.935,1101.369 1248.713,1110.262 1277,1102C1305.287,1093.738 1317.869,1084.819 1316,1067Z" style="fill:rgb(169,107,74);"/>
    </g>
    <g transform="matrix(-0.668953,-0.323934,-0.323934,0.668953,2753.256696,785.48848)">
        <path d="M1316,1067C1314.681,1054.432 1288.817,1043.619 1263,1053C1237.183,1062.381 1217.065,1076.234 1221,1088.801C1224.935,1101.369 1248.713,1110.262 1277,1102C1305.287,1093.738 1317.869,1084.819 1316,1067Z" style="fill:rgb(169,107,74);"/>
    </g>
    <g transform="matrix(1,0,0,1,110.893947,-10.502267)">
        <path d="M905,878.526C905,878.526 961.113,875.624 990.99,884.706C1016.918,892.588 1072.152,925.063 1083,937C1090.46,945.209 1158.564,888.739 1182.601,884.706C1206.638,880.673 1095.356,791.449 1057,791.99C1018.644,792.531 986.566,813.085 971,822C955.434,830.915 916.562,853.415 905,878.526Z" style="fill:rgb(190,126,92);"/>
    </g>
    <g transform="matrix(1,0,0,1,127.893947,-4.502267)">
        <path d="M1201,1126.887L1223.598,1126.887C1223.598,1126.887 1254.282,1155.973 1303.344,1145" style="fill:none;stroke:rgb(132,92,71);stroke-width:12.5px;"/>
    </g>
    <g transform="matrix(-0.762946,-0.269009,-0.269009,0.762946,2805.469748,628.811848)">
        <path d="M1201,1126.887L1223.598,1126.887C1223.598,1126.887 1254.282,1155.973 1303.344,1145" style="fill:none;stroke:rgb(132,92,71);stroke-width:15.45px;"/>
    </g>
    <g transform="matrix(1.02692,0,0,1,56.561397,-10.502267)">
        <path d="M1573,2722C1565.537,2606.615 1646.878,2483.221 1797,2482C1947.122,2480.779 2023.657,2620.69 2018,2714C2012.343,2807.31 1947.672,2927.212 1800,2925C1652.328,2922.788 1580.463,2837.385 1573,2722Z" style="fill:url(#_Linear9);"/>
    </g>
    <defs>
        <linearGradient id="_Linear1" x1="0" y1="0" x2="1" y2="0" gradientUnits="userSpaceOnUse" gradientTransform="matrix(-7,-443.584365,443.584365,-7,825.106053,2338.086632)"><stop offset="0" style="stop-color:rgb(255,222,217);stop-opacity:1"/><stop offset="1" style="stop-color:rgb(255,97,71);stop-opacity:1"/></linearGradient>
        <linearGradient id="_Linear2" x1="0" y1="0" x2="1" y2="0" gradientUnits="userSpaceOnUse" gradientTransform="matrix(-294,-320.379693,320.379693,-294,1341,2282.502267)"><stop offset="0" style="stop-color:rgb(255,222,217);stop-opacity:1"/><stop offset="1" style="stop-color:rgb(255,96,72);stop-opacity:1"/></linearGradient>
        <linearGradient id="_Linear3" x1="0" y1="0" x2="1" y2="0" gradientUnits="userSpaceOnUse" gradientTransform="matrix(55,138,-138,55,1123,1314)"><stop offset="0" style="stop-color:rgb(255,184,172);stop-opacity:1"/><stop offset="0.47" style="stop-color:rgb(255,214,207);stop-opacity:1"/><stop offset="1" style="stop-color:rgb(255,222,217);stop-opacity:1"/></linearGradient>
        <linearGradient id="_Linear4" x1="0" y1="0" x2="1" y2="0" gradientUnits="userSpaceOnUse" gradientTransform="matrix(-353.428129,-363.860205,376.684762,-341.395365,1242.29551,1206.835262)"><stop offset="0" style="stop-color:rgb(255,222,217);stop-opacity:1"/><stop offset="1" style="stop-color:rgb(255,97,71);stop-opacity:1"/></linearGradient>
        <linearGradient id="_Linear5" x1="0" y1="0" x2="1" y2="0" gradientUnits="userSpaceOnUse" gradientTransform="matrix(420.75479,-545.518714,545.518714,420.75479,608.106053,1918.431384)"><stop offset="0" style="stop-color:rgb(255,222,217);stop-opacity:1"/><stop offset="0.47" style="stop-color:rgb(255,188,177);stop-opacity:1"/><stop offset="1" style="stop-color:rgb(255,97,71);stop-opacity:1"/></linearGradient>
        <linearGradient id="_Linear6" x1="0" y1="0" x2="1" y2="0" gradientUnits="userSpaceOnUse" gradientTransform="matrix(-226.893947,-311,311,-226.893947,1341,1799.502267)"><stop offset="0" style="stop-color:rgb(255,222,217);stop-opacity:1"/><stop offset="0.43" style="stop-color:rgb(255,183,172);stop-opacity:1"/><stop offset="1" style="stop-color:rgb(255,97,71);stop-opacity:1"/></linearGradient>
        <linearGradient id="_Linear7" x1="0" y1="0" x2="1" y2="0" gradientUnits="userSpaceOnUse" gradientTransform="matrix(221,350,-350,221,748.106053,1066.502267)"><stop offset="0" style="stop-color:rgb(132,92,71);stop-opacity:1"/><stop offset="1" style="stop-color:rgb(87,46,25);stop-opacity:1"/></linearGradient>
        <linearGradient id="_Linear8" x1="0" y1="0" x2="1" y2="0" gradientUnits="userSpaceOnUse" gradientTransform="matrix(-144,460.810811,-460.810811,-144,1112.106053,977.502267)"><stop offset="0" style="stop-color:rgb(169,107,74);stop-opacity:1"/><stop offset="1" style="stop-color:rgb(118,58,26);stop-opacity:1"/></linearGradient>
        <linearGradient id="_Linear9" x1="0" y1="0" x2="1" y2="0" gradientUnits="userSpaceOnUse" gradientTransform="matrix(-328.165758,351,-341.798757,-337,1860.254392,2649)"><stop offset="0" style="stop-color:rgb(255,229,176);stop-opacity:1"/><stop offset="1" style="stop-color:rgb(255,193,66);stop-opacity:1"/></linearGradient>
    </defs>
</svg>
